<svg xmlns="http://www.w3.org/2000/svg" xmlns:xlink="http://www.w3.org/1999/xlink" width="1182" zoomAndPan="magnify" viewBox="0 0 886.5 513.749985" height="685" preserveAspectRatio="xMidYMid meet" version="1.0"><defs><clipPath id="id1"><path d="M 0 0.0195312 L 886 0.0195312 L 886 513.480469 L 0 513.480469 Z M 0 0.0195312 " clip-rule="nonzero"/></clipPath><clipPath id="id2"><path d="M 460 0.0195312 L 886 0.0195312 L 886 513.480469 L 460 513.480469 Z M 460 0.0195312 " clip-rule="nonzero"/></clipPath></defs><g clip-path="url(#id1)"><path fill="rgb(100%, 100%, 100%)" d="M 0 0.0195312 L 886.5 0.0195312 L 886.5 521.269531 L 0 521.269531 Z M 0 0.0195312 " fill-opacity="1" fill-rule="nonzero"/><path fill="rgb(54.119873%, 55.288696%, 84.709167%)" d="M 0 0.0195312 L 886.5 0.0195312 L 886.5 513.769531 L 0 513.769531 Z M 0 0.0195312 " fill-opacity="1" fill-rule="nonzero"/><path fill="rgb(100%, 100%, 100%)" d="M 0 0.0195312 L 886.5 0.0195312 L 886.5 513.769531 L 0 513.769531 Z M 0 0.0195312 " fill-opacity="1" fill-rule="nonzero"/><path fill="rgb(54.119873%, 55.288696%, 84.709167%)" d="M 0 0.0195312 L 886.5 0.0195312 L 886.5 513.769531 L 0 513.769531 Z M 0 0.0195312 " fill-opacity="1" fill-rule="nonzero"/></g><g clip-path="url(#id2)"><path fill="rgb(96.469116%, 74.119568%, 25.099182%)" d="M 749.695312 -25.589844 C 590.015625 -25.589844 460.570312 103.855469 460.570312 263.535156 C 460.570312 423.210938 590.015625 552.660156 749.695312 552.660156 C 909.375 552.660156 1038.820312 423.210938 1038.820312 263.535156 C 1038.820312 103.855469 909.375 -25.589844 749.695312 -25.589844 " fill-opacity="1" fill-rule="nonzero"/></g></svg>